<svg width="119" height="61" viewBox="0 0 119 61" fill="none" xmlns="http://www.w3.org/2000/svg">
<path d="M96.5093 60.1559L99.0816 59.2352L103.905 57.4606C106.985 56.2887 109.726 55.1838 111.994 54.1124C116.547 52.1202 119.237 50.5967 118.983 49.994C118.73 49.3913 115.599 49.8434 110.742 51.0487C108.305 51.6514 105.428 52.4382 102.28 53.3925L97.3385 54.9159L96.6616 55.1336C98.8068 53.146 100.793 50.9967 102.602 48.705C104.738 46.0385 106.572 43.1472 108.068 40.0833C110.222 35.7981 111.378 31.0903 111.453 26.3054C111.467 23.3363 110.969 20.3867 109.98 17.5833C109.42 16.0406 108.7 14.5594 107.831 13.1636C106.892 11.7008 105.803 10.3375 104.582 9.0955C99.0432 3.9994 91.9442 0.876974 84.4091 0.222726C76.8404 -0.407117 69.2187 0.301492 61.9011 2.31537C54.7764 4.10666 48.0071 6.19931 41.5931 8.44262C30.6949 12.0849 20.293 17.0442 10.6234 23.2082C3.38023 27.9962 -0.24137 31.7965 0.0124797 32.0308C0.26633 32.2652 4.48023 29.1681 11.9603 25.0665C21.8596 19.7252 32.2959 15.4216 43.0993 12.2261C49.4455 10.3008 56.2995 8.40911 63.1873 6.90241C69.8755 5.24334 76.804 4.74486 83.6645 5.42919C89.7984 6.06127 95.5532 8.66659 100.046 12.8455C103.479 16.4653 105.333 21.2765 105.208 26.2384C105.153 30.2452 104.236 34.1945 102.517 37.8233C101.237 40.5806 99.7021 43.2147 97.9309 45.6916C96.0354 48.32 94.5462 50.2786 93.3277 51.7853C93.1077 50.8478 92.9046 49.9438 92.7016 49.0565C92.0077 46.0934 91.3139 43.4315 90.6539 41.2217C90.1426 39.428 89.5209 37.6669 88.7923 35.9483C88.649 35.5602 88.3657 35.2381 87.9969 35.0442C87.8664 34.9844 87.7197 34.9684 87.5792 34.9987C87.4387 35.0289 87.312 35.1037 87.2184 35.2116C87.0929 35.3727 87.0114 35.5629 86.9815 35.7641C86.9272 35.8306 86.8817 35.9038 86.8461 35.9817C86.8721 36.1088 86.8721 36.2397 86.8461 36.3668C86.8033 38.172 86.8768 39.9782 87.0661 41.7742C87.2861 44.0677 87.6076 46.7965 88.0646 49.7931C88.3015 51.2998 88.5553 52.8735 88.8092 54.4974C88.9784 55.4014 89.1477 56.3222 89.3169 57.2597C89.3329 58.0659 89.6022 58.8472 90.0874 59.4952C90.5726 60.1432 91.2497 60.6257 92.0246 60.8758C92.843 61.0788 93.7044 61.0322 94.4954 60.7419L96.5431 60.0387" fill="white"/>
</svg>
